<svg width="1440" height="2448" viewBox="0 0 1440 2448" fill="none" xmlns="http://www.w3.org/2000/svg">
<g opacity="0.1">
<path fill-rule="evenodd" clip-rule="evenodd" d="M366.664 818.073C366.513 783.877 306.191 745.424 280.424 725.599C229.476 686.388 176.486 650.178 123.988 613.39C71.4899 576.602 18.8501 539.914 -31.2103 499.526C-63.7145 473.309 -101.907 443.781 -123.951 406.344C-170.912 326.566 -22.8481 338.413 15.5051 336.668C113.075 332.21 224.987 334.244 316.443 292.7C371.039 267.898 392.81 226.304 381.084 165.682C377.304 145.967 366.116 123.279 375.594 104.073C385.713 83.5596 408.996 71.7225 428.319 63.7845C498.798 34.8647 579.832 31.5139 654.403 27.884C734.813 23.8951 815.979 25.0619 895.822 24.7527C929.678 24.6231 965.036 11.7886 997.275 1.35755C1039.54 -12.3145 1081.3 -27.6719 1123.22 -42.5207C1215.43 -75.1103 1310.45 -109.435 1408.01 -117.712C1469.11 -122.898 1535.88 -115.887 1583.34 -70.7823C1607.17 -48.1351 1619.65 -14.4685 1633.42 15.4386C1650.1 51.5684 1666.12 88.0471 1683.87 123.609C1741.07 238.141 1822.72 350.061 1955.26 355.685C1975.31 356.533 1995.01 353.77 2014.96 353.252C2027.67 352.933 2038.98 356.174 2043.7 370.205C2055.58 405.397 2018.25 460.953 2002.94 488.876C1969.43 549.996 1931.63 608.374 1896.23 668.268C1872.8 707.878 1832.26 762.008 1831.83 810.135C1831.45 853.016 1885.5 884.01 1914.93 905.131C1942.5 924.906 1992.45 952.58 1995.48 992.808C1996.94 1012.31 1984.75 1028.48 1972.03 1041.02C1949.72 1062.96 1924.02 1078.44 1903.95 1103.47C1871.04 1144.54 1843.54 1201.04 1848.01 1256.38C1851.11 1294.72 1871.84 1319.83 1898.21 1343.83C1909.29 1353.93 1918.29 1361.07 1918.88 1377.45C1919.82 1403.47 1910.16 1431 1902.21 1455.13C1873.75 1541.46 1833.32 1624.93 1788.36 1702.88C1765.89 1741.83 1741.61 1780.66 1711.82 1813.89C1692.31 1835.71 1665.99 1861.68 1636.23 1861.65C1601.77 1861.65 1565.31 1848.52 1531.81 1838.71C1469.25 1820.37 1407.44 1799.17 1345.88 1777.42C1203.52 1727.1 1062.5 1672.71 922.809 1614.23C824.417 1572.98 723.937 1531.66 631.433 1476.82C613.392 1466.04 596.364 1453.49 580.578 1439.31C563.712 1424.42 542.783 1417.76 521.561 1412.79C389.843 1381.97 245.539 1405.63 113.273 1420.47C79.7009 1424.23 46.129 1428.01 12.4625 1430.64C-16.4795 1432.91 -51.1286 1439.4 -79.258 1429.65C-134.685 1410.45 -86.2314 1339.7 -65.7461 1310.87C6.37742 1209.36 99.4303 1123.48 185.68 1035.8C226.688 994.045 268.008 952.4 306.787 908.282C326.979 885.346 366.797 848.049 366.664 818.073Z" stroke="#FFCA49" stroke-width="3.31375"/>
<path fill-rule="evenodd" clip-rule="evenodd" d="M391.521 812.307C369.414 776.124 330.628 749.38 298.432 724.211C252.101 687.977 204.313 653.757 157.244 618.551C112.738 585.258 68.1367 551.586 26.9207 513.778C1.78829 490.722 -29.7454 463.151 -41.6497 429.05C-67.4724 355.138 71.4463 366.352 105.741 364.418C191 359.634 287.663 358.537 366.539 319.622C415.793 295.32 436.027 255.02 425.522 199.07C421.891 179.712 415.348 163.185 423.631 143.927C433.209 121.639 455.24 107.744 475.437 97.9353C538.703 67.2041 613.486 60.6752 682.066 55.2427C752.915 49.6307 826.733 45.6734 895.304 49.7802C922.724 51.4149 954.286 42.1348 981.423 35.0177C1023.18 24.0529 1064.51 11.4036 1106.05 -0.358569C1190.49 -24.2816 1277.12 -47.3274 1364.96 -49.949C1428.38 -51.8429 1494.5 -41.576 1547.26 -1.89361C1600.73 38.3469 1624.46 100.726 1654.11 160.026C1705.32 262.546 1774.48 387.195 1892.96 408.855C1910.93 412.145 1928.19 410.36 1946.14 411.168C1955.37 411.577 1965.87 412.872 1970.55 422.471C1982.7 447.391 1949.41 492.955 1938.2 512.043C1907.25 564.794 1872.44 614.962 1840 666.696C1814.24 707.774 1781.58 753.417 1771.61 802.11C1759.52 861.2 1838.54 903.245 1866.32 944.851C1914.5 1017 1823.23 1058.11 1778.23 1092.51C1726.56 1132 1683.9 1204.05 1730.22 1265.15C1747.94 1288.52 1769.75 1302.44 1777.66 1332.93C1790.04 1380.62 1780.68 1435.11 1770.64 1482.25C1755.51 1553.11 1731.57 1623.21 1699.02 1687.25C1675.7 1733.11 1637.02 1805 1580.37 1799.61C1542.24 1796.01 1503.47 1782.87 1466.34 1771.24C1410.75 1753.85 1355.85 1734.02 1301.24 1713.43C1175.19 1666.02 1050.53 1613.75 928.322 1556.25C844.935 1517.01 612.332 1356.64 594.83 1350.91C542.646 1333.87 483.313 1336.87 429.512 1339.51C357.944 1343.02 286.736 1352.11 215.584 1360.53C181.715 1364.52 147.676 1369.4 113.627 1371.36C89.3926 1372.75 57.5657 1373.95 36.3383 1359.09C-5.09517 1330.09 41.066 1263.75 60.1565 1235.68C118.638 1149.62 192.617 1075.1 261.982 998.907C296.021 961.498 330.581 924.148 361.481 883.738C373.943 867.42 405.184 834.656 391.521 812.307Z" stroke="#FFCA49" stroke-width="3.31375"/>
<path fill-rule="evenodd" clip-rule="evenodd" d="M422.104 793.75C361.731 721.343 278.403 667.491 206.487 607.019C170.391 576.658 134.069 545.469 102.937 509.306C86.7423 490.501 66.5202 466.72 63.4003 440.507C55.0619 370.383 180.271 379.865 217.746 377.203C290.202 372.038 372.054 368.12 437.788 332.335C477.949 310.459 497.726 274.555 490.22 227.363C486.892 206.425 481.711 188.637 490.22 168.077C498.842 147.248 516.805 132.552 534.994 121.534C587.265 89.8469 652.224 79.7166 711.075 72.1687C780.113 63.3774 849.671 59.9449 919.186 61.8989C980.069 63.5839 1040.66 44.6295 1100.11 32.1362C1178.86 15.5948 1259.04 1.14723 1339.62 3.33082C1403.27 5.06573 1467.41 18.6957 1521.82 54.9193C1577.11 91.811 1610.35 147.029 1640.32 206.614C1685.62 296.69 1742.08 417.395 1841.47 451.605C1855.93 456.59 1869.4 457.139 1884.31 458.006C1891.55 458.425 1900.9 458.555 1904.49 466.521C1913.13 485.705 1881.19 522.896 1872.27 535.858C1843.82 577.236 1812.97 616.75 1783.8 657.58C1756.57 695.698 1726.92 735.422 1710 780.091C1683.09 851.232 1769.14 892.83 1766.73 960.621C1765.22 1002.71 1727.02 1032.89 1696.77 1053.77C1659.52 1079.44 1605.89 1096.32 1587.24 1143.17C1573.36 1178.07 1595.15 1198.38 1611.93 1224.86C1640.37 1269.73 1642.3 1330.55 1639.34 1382.49C1635.35 1452.68 1619.76 1523.9 1593.23 1588.41C1581.2 1617.65 1566.47 1648.07 1544.79 1670.79C1524.47 1692.07 1505.24 1697.53 1478.09 1693.17C1394.97 1679.81 1311.04 1642.57 1231.34 1609.31C1131.19 1567.51 1032.43 1521.36 936.609 1469.45C871.273 1434.04 804.462 1396.58 747.114 1347.66C732.167 1334.91 716.861 1321.05 705.932 1304.23C697.669 1291.59 694.162 1281.15 680.236 1273.93C638.96 1252.54 581.546 1258.14 537.32 1260.36C466.604 1263.9 396.228 1273.32 325.947 1281.81C284.936 1286.79 207.678 1302.48 174.929 1264.86C146.662 1232.37 180.772 1176.99 198.195 1148.37C242.27 1076 298.966 1012.49 351.568 947.09C375.675 917.118 400.728 886.917 420.639 853.595C425.725 845.1 433.874 833.843 435.273 823.523C436.843 811.698 429.516 802.674 422.104 793.75Z" stroke="#FFCA49" stroke-width="3.31375"/>
<path fill-rule="evenodd" clip-rule="evenodd" d="M427.294 810.607C371.507 746.586 304.298 693.99 244.408 634.079C217.554 607.217 190.436 579.038 169.975 546.269C158.969 528.647 147.282 506.465 150.317 484.563C159.025 421.699 262.004 427.377 303.608 423.695C365.428 418.286 436.447 412.838 491.109 378.941C526.917 356.739 540.343 323.95 533.658 281.662C526.482 236.3 542.527 203.371 579.044 178.066C624.827 146.365 682.619 133.443 735.777 124.263C799.822 113.255 864.679 108.376 929.556 109.684C992.652 110.961 1053.78 99.8055 1116.46 92.5512C1199.57 82.942 1285.34 78.2022 1367.5 97.8996C1439.04 115.052 1503.66 152.851 1552.1 211.304C1602.7 272.312 1627.74 349.176 1668.83 416.67C1694.45 458.769 1730.18 514.458 1778.07 530.823C1794.04 536.281 1823.14 528.917 1810.38 555.769C1803.09 571.126 1789.45 584.596 1778.67 597.149C1761.25 617.435 1743.26 637.163 1725.55 657.169C1687.8 699.817 1647.38 743.373 1619.09 793.873C1583.45 857.456 1636.43 906.39 1629.98 970.86C1626.51 1005.56 1603.64 1033.25 1579.46 1055C1563.81 1069.09 1546.68 1081.29 1529.2 1092.68C1510.94 1104.57 1489.34 1113.63 1473.41 1129.01C1450.72 1150.89 1460.57 1176.79 1464.83 1205.08C1472.32 1254.8 1473.96 1305.3 1469.73 1355.44C1464.54 1416.9 1452.39 1480.11 1426.8 1535.96C1416.84 1557.7 1404.23 1580.75 1385.5 1595.33C1366.77 1609.91 1347.39 1608.91 1325.93 1604.52C1262.26 1591.55 1198.73 1561.36 1138.34 1532.75C1062.75 1496.94 988.653 1456.92 917.888 1411.39C869.042 1379.96 820.034 1346 779.168 1303.38C767.283 1290.98 755.974 1277.7 746.83 1262.87C740.552 1252.7 737.186 1239.58 728.09 1231.94C699.629 1208.08 642.49 1215.2 609.112 1216.59C542.499 1219.35 476.935 1232.49 410.407 1235.69C374.098 1237.43 317.233 1241.82 290.569 1209.2C265.493 1178.54 288.205 1130.25 303.192 1100.7C332.646 1042.61 372.216 990.847 407.684 936.844C422.264 914.622 438.244 891.373 447.69 865.997C456.086 843.386 441.591 827.022 427.294 810.607Z" stroke="#FFCA49" stroke-width="3.31375"/>
<path fill-rule="evenodd" clip-rule="evenodd" d="M441.014 811.654C396.609 755.317 343.078 705.307 298.352 648.053C272.172 614.524 227.087 558.157 247.334 510.887C269.545 458.944 346.97 457.53 391.724 453.345C444.991 448.363 507.545 441.557 553.13 409.124C567.548 398.871 579.83 385.3 585.036 367.424C590.61 348.293 584.516 331.553 583.722 312.402C582.06 272.227 604.791 239.973 634.873 217.823C677.388 186.506 730.551 171.699 780.766 161.376C837.656 149.733 895.491 143.993 953.443 144.238C1008.83 144.437 1063.62 143.142 1119.06 141.648C1191.57 139.655 1265.09 142.873 1335.42 163.19C1404.7 183.218 1467.69 220.753 1517.16 275.964C1565.43 329.84 1598 395.692 1626.52 462.771C1642.71 500.843 1670.05 557.739 1708.65 576.969C1725.82 585.528 1742.66 584.941 1724.41 607.2C1701.42 635.229 1670.45 657.718 1643.82 681.692C1605.42 716.287 1566.05 751.56 1533.81 792.692C1513.22 818.958 1504.05 844.446 1505.47 878.453C1506.56 904.36 1511.53 929.998 1509.02 956.004C1503.13 1017.04 1457.57 1058.9 1417.28 1097.88C1391.37 1122.95 1367.7 1142.07 1354.36 1177.74C1338.58 1219.88 1331.96 1265.74 1321.42 1309.5C1309.83 1357.56 1296.45 1407.55 1271.17 1449.87C1248.67 1487.56 1221.3 1504.46 1180.33 1494.3C1116.44 1478.48 1053.46 1439.5 996.733 1403.44C938.997 1366.75 882.254 1325.5 834.41 1275.07C808.58 1247.84 790.95 1215.87 768.011 1186.61C739.157 1149.89 673.883 1163.8 635.09 1166.9C570.694 1172.07 368.067 1210.69 386.764 1085.6C394.568 1033.39 425.302 985.199 447.778 939.125C457.094 920.004 470.576 897.056 472.683 875.145C474.978 851.281 454.363 828.613 441.014 811.654Z" stroke="#FFCA49" stroke-width="3.31375"/>
<path fill-rule="evenodd" clip-rule="evenodd" d="M464.458 816.438C430.525 765.385 389.914 717.154 360.798 662.014C341.909 626.304 323.361 578.59 347.727 540.807C375.229 498.168 435.87 488.229 480.428 482.795C526.336 477.203 581.141 472.497 618.663 440.167C630.601 429.869 640.441 415.981 642.273 399.352C644.04 383.402 639.053 367.451 640.706 351.211C644.408 314.743 665.365 284.696 692.385 262.903C772.311 198.431 891.271 184.095 987.706 182.411C1035.97 181.573 1085.65 185.97 1134.23 189.12C1197.27 193.207 1260.41 201.98 1320.53 223.125C1448.36 268.067 1534.03 367.74 1593.87 491.768C1612.71 530.808 1627.12 573.048 1656.63 604.421C1671.85 620.621 1668.52 632.255 1652.97 647.03C1628.65 670.119 1598.98 687.764 1571.99 707.035C1533.6 734.441 1494.39 762.255 1460.44 795.084C1437.03 817.714 1420.42 839.517 1415.38 873.452C1411.78 897.648 1412.62 922.302 1410.46 946.647C1406.34 992.895 1392.24 1038.79 1367.28 1077.16C1347.45 1107.56 1323.83 1135.2 1299.43 1161.55C1267.71 1195.85 1240.88 1230.7 1216.78 1271.42C1184.84 1325.31 1139.97 1424.72 1064.73 1398.42C981.756 1369.39 903.982 1295.62 850.745 1224.15C832.867 1200.16 818.191 1170.73 794.08 1153.03C757.984 1126.58 721.359 1127.51 678.426 1127.62C614.149 1127.77 474.28 1142.49 472.769 1040.89C472.174 1000.63 488.682 962.568 496.587 923.847C505.502 880.481 487.634 851.231 464.458 816.438Z" stroke="#FFCA49" stroke-width="3.31375"/>
<path fill-rule="evenodd" clip-rule="evenodd" d="M489.733 820.99C456.169 754.451 380.904 645.115 438.149 571.124C468.387 532.022 521.871 517.328 566.737 508.571C602.843 501.488 646.386 498.828 673.667 468.801C693.718 446.725 684.817 414.596 692.499 386.961C702.034 352.7 723.919 324.666 750.812 303.596C825.963 244.709 930.455 226.637 1020.86 222.792C1114.75 218.807 1218.2 237.446 1306.55 273.301C1416.71 318.022 1499.25 402.701 1556.96 509.936C1567.61 529.731 1577.29 550.044 1587.51 570.078C1594.38 583.518 1604.57 596.518 1609.98 610.655C1619 634.226 1608.38 653.493 1591.35 668.855C1566.86 690.971 1536.77 706.712 1508.85 723.309C1470.66 746.023 1431.63 768.329 1396.1 794.978C1372.24 812.91 1347.25 832.227 1338.71 863.339C1332.88 884.559 1331.67 907.034 1331.88 929.011C1332.33 976.133 1329.99 1014.24 1309.14 1057.4C1274.84 1128.25 1222.09 1191.96 1166.37 1244.97C1122.64 1286.57 1053.44 1351.19 989.722 1323.38C932.553 1298.47 899.111 1238.86 861.446 1190.66C843.133 1167.23 822.561 1145.83 798.39 1129.16C767.915 1108.15 739.227 1099.34 703.121 1095.9C642.351 1090.11 550.72 1088.61 531.934 1011.7C524.999 983.316 528.958 953.917 525.32 925.166C520.567 887.149 506.667 854.553 489.733 820.99Z" stroke="#FFCA49" stroke-width="3.31375"/>
<path fill-rule="evenodd" clip-rule="evenodd" d="M524.633 823.453C500.732 750.647 469.333 658.892 527.06 594.184C555.022 562.838 594.353 545.315 632.419 532.22C659.682 522.835 702.97 520.072 719.684 491.219C731.961 469.986 733.661 440.694 744.766 417.944C760.026 386.668 783.143 360.906 810.264 340.74C880.919 288.19 972.944 267.884 1056.87 262.07C1239.22 249.454 1424.76 349.936 1522.34 515.255C1551.43 564.534 1588.99 616.984 1541.97 667.329C1490.63 722.253 1413.3 747.984 1352.04 787.01C1328.63 801.911 1298.79 819.823 1285.73 846.801C1277.88 863.018 1277.34 883.363 1276.98 901.216C1276.04 946.685 1272.46 987.576 1255.13 1030C1228.37 1095.57 1185.69 1156.06 1137.33 1205.6C1095.16 1248.81 1035.01 1299.58 973.765 1268.44C926.804 1244.5 897.02 1193.7 860.531 1156.25C819.925 1114.54 769.706 1086.43 714.557 1072.7C660.909 1059.37 602.068 1050.39 573.795 993.779C564.097 974.361 553.964 949.218 550.328 927.725C544.459 892.288 535.866 857.416 524.633 823.453Z" stroke="#FFCA49" stroke-width="3.31375"/>
<path fill-rule="evenodd" clip-rule="evenodd" d="M563.548 823.967C552.491 750.448 551.262 673.789 602.636 615.846C626.612 588.814 656.92 569.609 687.569 552.209C710.118 539.406 733.404 528.607 750.245 507.617C765.848 488.183 777.709 465.618 792.773 445.676C812.645 419.247 836.421 396.369 863.19 377.921C930.29 331.764 1011.91 310.176 1090.01 302.687C1127.81 299.048 1168.81 297.153 1206.36 307.074C1242.62 316.647 1278.48 331.783 1311.82 349.433C1382.7 386.915 1444.13 441.807 1488.66 511.207C1519.2 558.81 1535.71 605.097 1496.17 653.388C1451.59 707.821 1381.69 737.855 1324.08 773.183C1284.57 797.413 1240.28 821.165 1232.9 872.657C1227.02 913.629 1222.25 952.517 1207.04 991.245C1184.41 1048.37 1151.14 1100.12 1109.19 1143.42C1070.83 1182.86 1022.3 1216.34 967.431 1195.27C923.958 1178.55 890.228 1141.08 852.246 1114.3C809.917 1084.39 763.41 1067.89 714.437 1054.63C670.425 1042.67 628.984 1024.28 600.538 985.243C594.716 977.266 588.601 968.581 584.112 959.656C578.385 948.269 578.83 936.982 577.705 924.218C574.775 890.535 568.547 857.241 563.548 823.967Z" stroke="#FFCA49" stroke-width="3.31375"/>
<path fill-rule="evenodd" clip-rule="evenodd" d="M606.459 817.957C607.404 748.126 623.321 682.129 666.915 627.708C685.552 604.428 707.808 585.252 728.316 563.919C744.828 546.721 760.433 530.741 779.42 516.569C824.459 483.012 861.064 439.587 908.928 409.704C972.822 369.755 1046.01 347.673 1118.63 338.844C1154.1 334.53 1190.73 333.021 1226.6 337.895C1257.42 342.08 1286.93 356.771 1314.3 371.802C1367.96 401.245 1420.05 443.092 1454.89 496.035C1531.7 612.757 1380.27 697.62 1302.54 747.317C1266.8 770.178 1212.18 796.654 1197.54 841.937C1187.07 874.286 1180.7 907.184 1167.22 938.535C1131.01 1022.73 1057.51 1121.75 959.56 1108.57C917.647 1102.94 879.446 1080.06 840.32 1064.7C800.031 1048.88 758.449 1040.06 716.574 1030.38C677.438 1021.34 646.247 1008.48 620.968 973.99C608.887 957.521 609.954 937.806 608.877 917.601C607.12 884.413 606.034 851.036 606.459 817.957Z" stroke="#FFCA49" stroke-width="3.31375"/>
<path fill-rule="evenodd" clip-rule="evenodd" d="M645.53 809.013C661.266 703.609 719.708 588.537 805.641 527.323C906.725 455.316 1016.23 394.681 1137.01 377.249C1193 369.167 1254.34 365.19 1307.17 391.621C1347.38 411.723 1394.09 441.772 1416.22 484.029C1470.36 587.391 1349.93 669.673 1281.32 717.492C1244.39 743.235 1197.37 768.32 1169.53 805.913C1153.38 827.71 1145.13 856.543 1132.09 880.482C1092.57 953.027 1027.52 1011.54 946.481 1022C909.013 1026.84 871.271 1020.86 834.087 1016.1C796.024 1011.24 757.488 1008.6 719.661 1001.81C689.465 996.391 653.88 987.212 642.759 953.117C628.734 910.152 639.108 852.058 645.53 809.013Z" stroke="#FFCA49" stroke-width="3.31375"/>
<path fill-rule="evenodd" clip-rule="evenodd" d="M683.842 792.08C706.792 692.982 755.39 596.318 837.087 537.159C880.412 505.789 930.704 484.134 978.99 462.738C1033.72 438.49 1090.91 419.668 1149.31 410.331C1222.04 398.701 1339.81 388.217 1377.81 475.645C1415.52 562.424 1320.23 639.229 1263.87 682.998C1227.74 711.037 1189.08 736.771 1154.56 767.423C1135.84 784.041 1121.42 803.242 1105.58 822.733C1061.8 876.735 999.393 919.487 935.779 942.308C874.125 964.432 797.853 974.227 732.772 966.916C704.69 963.774 684.619 953.171 676.126 923.028C664.358 881.124 674.356 833.016 683.842 792.08Z" stroke="#FFCA49" stroke-width="3.31375"/>
<path fill-rule="evenodd" clip-rule="evenodd" d="M721.915 765.39C744.713 678.138 793.889 598.445 865.618 546.078C946.022 487.373 1049.56 454.753 1144.72 438.165C1195.3 429.354 1304.91 405.465 1330.69 473.834C1356.48 542.204 1281.94 609.58 1239.05 646.67C1186.98 691.617 1130.85 735.014 1074.78 775.343C1026.07 810.406 974.089 846.255 921.326 873.332C891.568 888.693 860.569 901.235 828.696 910.81C805.095 917.842 775.083 928.332 750.34 923.097C687.929 909.876 711.011 807.109 721.915 765.39Z" stroke="#FFCA49" stroke-width="3.31375"/>
<path fill-rule="evenodd" clip-rule="evenodd" d="M768.908 739.262C818.931 574.258 977.419 493.106 1130.02 464.82C1165.48 458.254 1264.88 434.581 1284.7 484.986C1303.91 533.857 1242.82 591.814 1214.23 619.273C1125.61 704.36 1016.13 767.449 912.38 829.949C879.997 849.457 821.592 891.792 781.423 872.264C737.808 851.022 758.544 773.477 768.908 739.262Z" stroke="#FFCA49" stroke-width="3.31375"/>
<path fill-rule="evenodd" clip-rule="evenodd" d="M820.146 707.503C863.649 585.99 990.18 516.298 1106.51 493.323C1135.01 487.701 1207.37 470.198 1228.95 504.108C1248.92 535.475 1201.26 580.927 1183.43 598.988C1143.74 639.207 1096.69 672.338 1050.22 704.184C1007.24 733.648 963.808 763.849 918.591 788.768C894.775 801.885 850.108 829.874 823.044 809.62C793.906 787.831 810.488 734.485 820.146 707.503Z" stroke="#FFCA49" stroke-width="3.31375"/>
<path fill-rule="evenodd" clip-rule="evenodd" d="M876.612 672.002C909.769 592.649 998.572 541.119 1076.91 523.996C1097.99 519.399 1143.54 507.471 1161.32 528.664C1177.69 548.18 1151.31 576.792 1139.6 590.006C1087.71 648.576 1011.71 700.893 942.082 733.025C924.576 741.103 893.105 756.959 875.096 740.654C856.623 723.91 868.995 690.222 876.612 672.002Z" stroke="#FFCA49" stroke-width="3.31375"/>
<path fill-rule="evenodd" clip-rule="evenodd" d="M936.511 638.668C955.195 599.265 1004.03 569.536 1044.48 560.073C1072.94 553.418 1107.16 559.167 1082.35 593.466C1057.71 627.504 1011.98 658.592 973.216 672.374C943.644 682.884 920.467 672.515 936.511 638.668Z" stroke="#FFCA49" stroke-width="3.31375"/>
<path fill-rule="evenodd" clip-rule="evenodd" d="M-578.597 911.583C-579.795 833.735 -619 752.83 -599.638 673.508C-583.739 608.362 -503.698 602.923 -455.681 573.407C-417.524 549.959 -395.869 508.42 -375.234 468.565C-356.693 432.784 -340.039 395.927 -320.508 360.734C-307.864 337.983 -286.153 293.306 -258.734 292.499C-232.484 291.723 -208.414 326.537 -193.167 347.117C-173.286 373.943 -155.66 402.542 -136.355 429.796C-103.822 475.767 -64.7873 509.795 -20.0914 542C30.7722 578.644 82.4755 614.036 135.019 648.177C173.704 673.389 212.654 698.411 249.839 726.114C273.164 743.496 324.644 776.109 324.88 808.155C324.993 823.445 311.264 840.38 302.008 852.602C286.345 873.292 268.493 892.208 250.584 910.716C217.23 945.192 182.46 978.104 148.068 1011.41C103.429 1054.65 60.7896 1097.17 21.5474 1146.25C-19.0252 1197.05 -57.7861 1249.53 -97.3397 1301.29C-124.127 1336.35 -150.886 1375.73 -189.524 1397.24C-237.919 1424.14 -277.642 1395.78 -326.584 1395.45C-368.686 1395.16 -365.581 1292.2 -370.931 1263.57C-376.3 1234.6 -388.132 1207.62 -392.718 1178.57C-398.436 1142.32 -398.511 1105.22 -399.917 1068.57C-401.625 1023.75 -402.304 981.073 -447.698 963.979C-473.533 954.267 -501.481 952.225 -528.221 946.407C-545.544 942.632 -578.219 936.177 -578.597 911.583Z" stroke="#FFCA49" stroke-width="3.31375"/>
<path fill-rule="evenodd" clip-rule="evenodd" d="M-557.899 897.734C-562.313 832.479 -588.384 748.957 -563.73 681.597C-542.666 624.033 -476.792 616.571 -432.435 586.332C-395.817 561.392 -379.516 520.578 -361.212 480.483C-346.527 448.32 -332.286 415.847 -315.616 384.71C-303.332 361.765 -284.574 323.027 -259.031 318.278C-236.068 314.008 -211.442 348.207 -198.552 365.606C-179.747 391.005 -163.664 418.59 -147.051 445.596C-117.861 493.034 -87.971 535.693 -45.2485 570.54C-2.33697 605.537 44.6096 631.705 92.057 658.94C129.176 680.25 166.105 702.178 201.372 726.779C227.643 745.096 265.413 768.541 277.433 801.203C286.949 827.042 238.689 869.92 224.458 885.054C195.164 916.171 164.121 945.381 133.022 974.412C95.1092 1009.79 55.9871 1040.73 22.5065 1081.08C-37.3768 1153.23 -87.4323 1243.08 -164.486 1296.7C-210.96 1329.04 -262.679 1337.31 -314.369 1332.47C-334.837 1330.56 -339.751 1300.06 -342.331 1282.27C-346.621 1252.72 -347.16 1222.66 -350.458 1192.99C-353.548 1165.22 -360.408 1138.83 -365.936 1111.6C-371.531 1084 -373.099 1055.73 -377.22 1027.95C-379.771 1010.7 -382.294 990.624 -393.454 976.757C-405.002 962.401 -424.053 956.385 -440.703 951.816C-471.973 943.316 -554.781 943.785 -557.899 897.734Z" stroke="#FFCA49" stroke-width="3.31375"/>
<path fill-rule="evenodd" clip-rule="evenodd" d="M-531.261 870.418C-538.683 810.518 -549.073 735.913 -518.838 680.726C-494.124 635.602 -441.415 625.868 -403.767 596.466C-372.454 572.017 -360.626 533.13 -345.083 496.993C-332.329 467.352 -319.508 437.582 -304.05 409.375C-292.327 387.984 -277.218 358.981 -253.941 351.518C-234.04 345.142 -211.557 373.707 -200.523 387.924C-181.737 412.155 -166.421 439.305 -151.209 466.096C-126.325 509.935 -103.426 556.763 -68.0092 592.421C-33.5948 627.024 7.28648 647.449 48.9336 670.414C80.833 688.009 112.534 706.282 142.59 727.265C165.668 743.366 194.268 762.445 206.294 789.237C216.694 812.342 189.995 839.691 176.654 855.991C154.625 882.892 130.176 907.571 106.067 932.35C80.0483 959.081 51.231 983.741 26.0537 1011.13C-26.8915 1068.77 -69.191 1132.58 -134.446 1176.74C-176.708 1205.34 -233.576 1231.33 -283.534 1226.66C-319.461 1223.29 -317.097 1139.38 -320.548 1112.57C-326.221 1068.73 -337.179 1022.67 -354.585 982.286C-369.532 947.683 -405.053 937.013 -437.727 929.251C-458.196 924.379 -479.649 921.749 -499.446 914.217C-522.364 905.489 -528.15 895.525 -531.261 870.418Z" stroke="#FFCA49" stroke-width="3.31375"/>
<path fill-rule="evenodd" clip-rule="evenodd" d="M-506.413 842.341C-510.832 791.699 -509.838 731.814 -481.214 688.007C-456.129 649.635 -411.466 639.533 -379.7 609.306C-354.908 585.723 -345.171 547.272 -331.838 516.086C-315.544 477.954 -292.711 407.527 -251.606 393.178C-213.368 379.838 -173.379 465.054 -159.535 490.465C-137.62 530.685 -119.291 574.792 -92.711 611.934C-69.8212 643.91 -39.1532 661.586 -6.60207 680.582C34.9005 704.844 97.9115 733.612 120.101 780.897C136.642 816.13 82.8566 868.511 64.4899 892.923C45.281 918.424 30.8128 948.651 10.9888 973.253C-20.2943 1012.07 -70.9851 1043.33 -112.838 1067.18C-153.527 1090.38 -206.365 1116.07 -252.524 1114.54C-282.86 1113.54 -288.633 1064.09 -295.105 1039.94C-304.378 1005.61 -316.708 974.841 -343.193 951.489C-370.152 927.717 -401.927 916.515 -435.33 906.712C-452.476 901.716 -472.035 897.819 -487.374 887.727C-504.321 876.745 -504.709 861.806 -506.413 842.341Z" stroke="#FFCA49" stroke-width="3.31375"/>
<path fill-rule="evenodd" clip-rule="evenodd" d="M-476.135 813.151C-475.89 769.4 -466.411 722.746 -438.304 688.998C-414.894 660.888 -378.251 651.491 -355.841 622.755C-338.09 600.004 -329.055 568.066 -317.171 541.647C-302.636 509.271 -282.084 452.713 -245.941 441.477C-210.666 430.539 -179.466 492.834 -165.94 517.484C-146.133 553.628 -130.099 591.94 -110.113 627.985C-94.4564 656.264 -75.3098 674.49 -49.8155 692.717C-19.8883 714.125 21.8665 737.84 37.8535 773.258C49.3792 798.902 21.4798 839.879 11.35 862.47C4.55905 877.644 -1.65652 893.056 -5.07085 909.503C-7.73063 922.31 -7.99472 934.162 -15.7005 945.159C-35.1018 972.822 -77.6395 976.432 -106.501 985.55C-144.832 997.651 -185.502 1011.4 -225.616 1014.03C-250.27 1015.67 -262.853 991.695 -276.925 974.831C-293.553 954.894 -317.095 940.556 -337.657 925.511C-364.792 905.625 -394.323 893.255 -424.873 880.587C-438.653 874.87 -454.838 869.262 -465.515 857.896C-476.663 846.113 -476.22 828.941 -476.135 813.151Z" stroke="#FFCA49" stroke-width="3.31375"/>
<path fill-rule="evenodd" clip-rule="evenodd" d="M1328.89 2133.48C1251.93 2182.74 1164.93 2223.41 1082.9 2264.74C963.009 2325.14 841.355 2383.91 715.385 2428.9C647.847 2453.01 560.331 2487.78 487.862 2468.89C461.366 2461.98 437.203 2441.1 413.447 2427.52C380.689 2408.81 347.449 2391.02 314.265 2373.2C247.7 2337.46 180.927 2302.09 115.505 2264.06C84.0026 2245.75 53.4356 2222.68 20.6395 2207.05C1.47375 2197.92 -21.4608 2202.19 -41.9395 2202.77C-89.3768 2204.11 -136.786 2206.67 -184.195 2208.84C-242.183 2211.49 -300.304 2214.31 -358.358 2213.26C-384.542 2212.78 -448.67 2217.69 -463.085 2193.89C-470.84 2181.08 -452.562 2157.97 -444.089 2147.28C-428.532 2127.63 -410.65 2109.92 -393.005 2092.39C-352.199 2051.85 -308.861 2013.25 -272.589 1967.97C-253.953 1944.69 -229.535 1916.25 -241.701 1884.48C-253.981 1852.38 -275.253 1824.59 -288.232 1792.6C-303.175 1755.79 -309.372 1717.49 -316.428 1678.46C-321.651 1649.61 -333.818 1624.05 -345.257 1597.45C-357.895 1568.06 -370.987 1538.41 -379.762 1507.41C-385.562 1486.93 -394.923 1450.09 -374.633 1437.13C-345.804 1418.69 -291.746 1433.62 -258.883 1439.05C-213.467 1446.55 -168.382 1456.09 -123.089 1464.31C-90.208 1470.29 -57.2135 1476.85 -23.7845 1477.55C30.1044 1478.67 84.1726 1474.78 137.92 1471.15C237.442 1464.43 336.25 1455.32 436.108 1455.32C523.594 1455.32 725.766 1562.12 773.09 1580.92C867.549 1618.46 964.52 1654.04 1053.91 1703.98C1078.09 1717.51 1115.3 1735.52 1128.03 1763.35C1135.88 1780.5 1132.27 1790.42 1150.78 1801.47C1176.04 1816.55 1208.4 1822.47 1236.36 1829.21C1281.39 1840.07 1326.77 1849.27 1372.01 1859.11C1463.5 1878.95 1554.37 1901.39 1645.48 1922.98C1673.03 1929.51 1706.35 1930.95 1732.61 1942.45C1749.54 1949.83 1747.78 1959.13 1734.68 1970.35C1711.7 1990.04 1679.49 2000.97 1652.34 2012.2C1612.57 2028.66 1572.14 2043.33 1531.69 2057.8C1491.24 2072.27 1450.59 2086.29 1410.12 2100.79C1383.39 2110.34 1352.91 2118.1 1328.89 2133.48Z" stroke="#FFCA49" stroke-width="3.31375"/>
<path fill-rule="evenodd" clip-rule="evenodd" d="M1265.56 2122.64C1184.16 2172 1093.8 2211.33 1006.69 2249.7C895.202 2298.84 781.194 2344.89 663.728 2375.61C594.758 2393.63 513.383 2413.53 442.911 2392.86C417.77 2385.48 398.988 2368.91 377.437 2354.28C352.873 2337.59 327.363 2322.29 301.854 2307.23C249.342 2276.23 196.276 2246.3 142.656 2217.42C114.256 2202.06 82.9928 2181.49 50.9077 2176.17C25.3983 2171.92 -3.57863 2178.06 -29.2014 2179.85C-75.345 2183.06 -121.479 2186.37 -167.642 2189.19C-220.909 2192.43 -274.328 2195.43 -327.708 2194.91C-357.46 2194.62 -408.535 2199.4 -429.576 2179.11C-447.933 2161.41 -381.099 2097.38 -369.345 2085.22C-332.64 2047.24 -294.036 2011.07 -259.872 1970.46C-239.682 1946.51 -215.099 1917.38 -206.586 1885.64C-199.339 1858.58 -213.322 1827.76 -221.58 1802.75C-231.906 1771.43 -240.239 1738.96 -252.238 1708.29C-262.924 1680.97 -279.93 1656.63 -294.867 1631.79C-311.297 1604.47 -327.935 1576.7 -340.132 1546.89C-347.606 1528.55 -359.973 1497.83 -345.121 1480.35C-327.964 1460.19 -275.074 1473.37 -253.334 1476.24C-209.231 1482.15 -165.469 1490.93 -121.668 1498.79C-48.9191 1511.85 20.4381 1523.26 94.5192 1520.53C190.992 1516.95 287.37 1508.55 383.824 1503.9C419.443 1502.17 455.628 1498.67 491.275 1500.56C511.711 1501.65 527.272 1508.23 539.157 1523.09C555.389 1543.37 592.774 1554.59 618.775 1566.23C659.316 1584.36 700.367 1601.23 741.305 1618.31C831.174 1655.83 922.771 1692 1008 1740.52C1034.97 1755.87 1065.84 1772.98 1085.79 1798.34C1096.92 1812.48 1094.11 1826.1 1100.9 1841.13C1109.9 1860.9 1139.47 1869.82 1157.15 1876.29C1191.26 1888.78 1226.78 1897.15 1262.02 1905C1341.76 1922.74 1421.69 1934.4 1502.72 1943C1521.71 1944.99 1596.49 1951.91 1557.22 1985.24C1513.82 2022.07 1451.17 2040.12 1400.08 2060.88C1354.06 2079.54 1308 2096.9 1265.56 2122.64Z" stroke="#FFCA49" stroke-width="3.31375"/>
<path fill-rule="evenodd" clip-rule="evenodd" d="M1153.06 2113.51C1076.55 2156.94 991.782 2189.34 909.374 2220.34C809.373 2257.95 706.866 2291.47 601.986 2310.26C536.101 2322.04 463.462 2331.1 398.022 2311.51C353.332 2298.14 318.763 2261.99 279.512 2237.12C240.261 2212.26 199.421 2188.91 157.361 2169.45C131.256 2157.38 103.175 2145.21 74.1294 2146.81C3.5058 2150.67 -67.0327 2159.89 -137.732 2164.36C-184.502 2167.35 -231.367 2169.81 -278.279 2169.07C-306.568 2168.64 -345.432 2170.43 -370.477 2154.73C-398.16 2137.36 -250.756 1989.09 -236.824 1972.4C-201.896 1930.55 -159.599 1875.02 -166.352 1815.51C-172.812 1758.62 -200.808 1716.14 -232.474 1671.57C-250.444 1646.21 -308.072 1578.47 -286.716 1545.49C-274.515 1526.64 -234.299 1533.17 -215.194 1534.45C-177.541 1536.98 -140.096 1542.42 -102.642 1547.14C-48.0313 1553.99 8.08366 1564.56 62.9311 1567.66C101.123 1569.81 139.542 1566.93 177.8 1566.87C232.656 1566.79 287.513 1567.23 342.37 1567.75C388.431 1568.19 434.88 1567.75 480.78 1572.41C509.315 1575.28 530.974 1581.73 551.442 1599.94C569.251 1615.78 596.122 1625.06 618.821 1635.13C656.313 1651.76 694.297 1667.17 732.157 1682.83C811.426 1715.63 891.602 1747.75 967.475 1788.73C1002.11 1807.44 1060.34 1833.62 1068.47 1878.96C1071.4 1895.31 1073.56 1902.38 1088.69 1911.67C1110.17 1924.86 1135.89 1930.81 1159.99 1935.98C1216.18 1948.04 1273.98 1946.23 1330.07 1958.15C1352.91 1963.06 1382.73 1973.66 1356.66 1997.93C1326.23 2026.32 1281.94 2041.92 1245.49 2059.46C1227.29 2068.21 1208.54 2076.4 1191.26 2087.08C1177.99 2095.31 1166.63 2105.86 1153.06 2113.51Z" stroke="#FFCA49" stroke-width="3.31375"/>
<path fill-rule="evenodd" clip-rule="evenodd" d="M1008.14 2099.95C937.448 2135.22 860.675 2160.87 785.281 2183.99C701.539 2209.64 615.776 2230.88 528.88 2239.92C468.878 2246.18 404.948 2248.03 346.712 2228.86C309.884 2216.74 284.916 2191.24 253.225 2169.86C205.395 2137.54 153.647 2111.93 96.1853 2118.17C31.7641 2125.14 -32.868 2130.37 -97.711 2133.86C-136.825 2135.96 -176.089 2137.54 -215.25 2136.07C-240.01 2135.15 -271.909 2133.61 -293.449 2121.77C-322.269 2105.92 -214.013 1985.32 -200.519 1967.74C-167.052 1924.15 -142.519 1878.41 -128.184 1824.4C-116.493 1780.32 -140.375 1745.68 -165.012 1712.71C-180.329 1692.24 -229.821 1640.74 -214.324 1614.16C-205.826 1599.5 -177.817 1600.25 -162.774 1599.5C-134.105 1598.09 -105.313 1599.56 -76.6433 1600.21C-34.3096 1601.21 10.7531 1594.35 52.728 1599.87C145.752 1612.1 238.541 1622.69 332.141 1631.06C383.739 1635.68 435.648 1639.87 486.782 1648.77C505.14 1651.97 524.102 1655.35 541.496 1662.58C552.686 1667.23 558.787 1675.14 568.23 1681.63C613.255 1712.53 672.029 1728.43 722.739 1748.23C790.153 1774.56 857.927 1800.48 923.547 1831.58C958.062 1847.93 1006.27 1866.73 1030.02 1900.12C1037.2 1910.2 1034.14 1918.27 1038.65 1927.97C1043.84 1939.16 1059.62 1942.49 1069.81 1945.61C1092.94 1952.69 1189.74 1963.4 1145.13 2004.93C1123.85 2024.72 1096.73 2037.41 1072.73 2052.96C1064.04 2058.59 1055.57 2064.26 1048.33 2071.86C1036.21 2084.6 1024.28 2091.87 1008.14 2099.95Z" stroke="#FFCA49" stroke-width="3.31375"/>
<path fill-rule="evenodd" clip-rule="evenodd" d="M853.723 2084.68C714.169 2141.75 550.618 2180.63 398.469 2173.09C347.872 2170.58 293.434 2162.19 249.575 2133.48C223.714 2116.51 203.047 2097.37 171.982 2091.24C149.555 2086.82 125.407 2091.84 102.848 2093.66C70.1737 2096.29 37.4805 2098.65 4.75889 2100.55C-35.8072 2102.88 -76.5058 2104.67 -117.148 2103.71C-146.188 2103.03 -186.291 2103.8 -211.518 2087.34C-241.637 2067.71 -164.971 1975.6 -154.184 1959.18C-128.039 1919.4 -109.71 1880.86 -103.086 1832.92C-101.137 1818.95 -94.5698 1804.64 -95.4214 1790.56C-96.3109 1776.18 -104.704 1763.38 -112.454 1752.08C-122.589 1737.26 -157.752 1702.12 -147.683 1684.05C-142.119 1674.08 -121.235 1672.82 -110.41 1670.7C-90.1036 1666.71 -69.5034 1664.57 -49.0737 1661.39C-14.4122 1655.99 20.0031 1638.38 54.7876 1638.88C148.325 1640.19 243.216 1670.8 334.88 1687.61C389.375 1697.64 444.239 1706.74 498.072 1720.32C515.105 1724.62 532.648 1729.07 548.839 1736.36C560.137 1741.45 567.395 1750.52 577.86 1756.22C617.991 1778.1 664.14 1791.38 707.233 1806.1C763.176 1825.26 819.308 1843.84 874.863 1864.23C909.685 1877.01 954.462 1888.26 984.468 1911.96C1006.38 1929.27 991.404 1934.45 979.841 1950.57C973.936 1958.79 975.298 1966.9 972.734 1976.2C969.072 1989.49 958.72 1999.06 949.011 2007.66C935.622 2019.55 917.785 2029.33 906.837 2043.9C902.976 2049.03 903.156 2055.39 900.033 2059.86C890.949 2072.88 866.848 2079.31 853.723 2084.68Z" stroke="#FFCA49" stroke-width="3.31375"/>
<path fill-rule="evenodd" clip-rule="evenodd" d="M705.346 2064.35C592.082 2100.23 466.057 2120.66 346.333 2111.17C304.677 2107.87 262.766 2100.2 223.963 2083.34C206.309 2075.69 193.057 2067.17 173.712 2066.71C128.826 2065.65 83.7978 2069.36 38.921 2070.24C6.80553 2070.88 -25.4706 2071.11 -57.5106 2068.39C-78.9335 2066.57 -107.904 2064.4 -125.454 2050.53C-150.957 2030.34 -104.919 1961.7 -95.5485 1942.74C-80.0197 1911.29 -64.6137 1876.33 -70.7724 1839.94C-72.6615 1828.81 -76.0054 1818.98 -76.4399 1807.63C-76.8555 1797.88 -75.6936 1788.88 -78.9713 1779.56C-83.0235 1768 -101.046 1750.07 -94.8495 1739.43C-90.6272 1732.16 -78.1023 1731.82 -69.7711 1729.5C-56.2586 1725.73 -43.065 1720.78 -30.3257 1714.71C-16.9127 1708.28 -5.49283 1698.35 8.40185 1693.04C30.9583 1684.43 56.2067 1683.63 79.9155 1683.66C174.515 1683.83 270.313 1703.52 362.513 1724.11C410.526 1734.83 458.803 1746.25 505.465 1762.51C519.634 1767.45 535.691 1772.41 548.15 1781.54C555.924 1787.21 561.195 1794.33 570.027 1798.6C645.47 1835.07 732.692 1848.62 812.782 1874.95C833.629 1881.81 949.16 1916.45 888.754 1949.04C852.058 1968.84 813.283 1977.84 779.798 2004.93C769.596 2013.16 762.795 2019.98 758.809 2032.55C756.183 2040.91 762.503 2036.67 753.68 2045.41C742.978 2055.92 718.542 2060.16 705.346 2064.35Z" stroke="#FFCA49" stroke-width="3.31375"/>
<path fill-rule="evenodd" clip-rule="evenodd" d="M587.578 2043.13C454.972 2072.42 314.542 2073.81 179.842 2047.85C145.886 2041.31 110.546 2042.87 76.1726 2041.21C42.7747 2039.62 -16.6045 2042.93 -40.862 2015.83C-58.4513 1996.19 -39.3654 1954.44 -32.7635 1932.47C-24.3525 1904.48 -17.0023 1875.56 -30.8123 1848.37C-38.9013 1832.45 -49.9834 1817.29 -58.6596 1801.52C-62.8083 1793.99 -71.352 1782.45 -67.7906 1775.31C-61.8991 1763.54 -34.3359 1758.58 -20.9616 1753.03C21.785 1735.29 67.0512 1730.76 112.753 1730.88C197.166 1731.12 282.015 1743.3 364.819 1759.82C402.915 1767.42 441.541 1775.53 478.282 1788.74C499.073 1796.22 514.408 1810.64 534.261 1819.19C598.187 1846.73 666.868 1861.45 731.892 1886.63C750.713 1893.93 821.013 1918.21 785.598 1946.84C751.309 1974.55 701.298 1971.26 665.646 1997.33C661.611 2000.32 656.619 2003.89 654.279 2008.72C652.896 2011.6 655.331 2017.1 654.279 2018.74C643.33 2036.58 604.41 2039.42 587.578 2043.13Z" stroke="#FFCA49" stroke-width="3.31375"/>
<path fill-rule="evenodd" clip-rule="evenodd" d="M501.666 2023.77C433.635 2033.62 364.108 2036.06 294.932 2036.68C257.119 2037.02 215.576 2039.56 178.577 2029.46C155.85 2023.23 133.899 2017.79 110.471 2013.87C85.2626 2009.65 44.6754 2006.57 29.3249 1983.69C17.8571 1966.59 25.7169 1931.44 26.1335 1910.65C26.5786 1887.85 22.1468 1870.94 6.89107 1854.62C-2.70177 1844.35 -46.7076 1807.05 -41.6223 1796.29C-36.7833 1786.04 -6.1203 1784.47 7.13732 1781.81C49.0409 1773.37 91.5032 1770.43 134.126 1770.89C200.14 1771.59 266.4 1778.69 331.381 1790.9C358.247 1795.97 386.012 1801.22 411.675 1811.36C428.957 1818.19 443.37 1830.31 460.539 1837.37C509.705 1857.63 561.694 1871.39 611.032 1892.02C626.865 1898.66 678.456 1916.31 666.089 1943.53C655.776 1966.25 620.7 1973.17 603.465 1988.39C574.147 2014.37 539.052 2018.37 501.666 2023.77Z" stroke="#FFCA49" stroke-width="3.31375"/>
<path fill-rule="evenodd" clip-rule="evenodd" d="M458.809 2010.71C404.842 2017.23 349.622 2020.08 294.864 2020.22C259.524 2020.31 222.242 2020.82 187.563 2012.44C170.143 2008.23 155.006 1998.4 138.52 1991.38C121.544 1984.16 98.1162 1976.11 90.7787 1959.57C83.8843 1944.02 86.4591 1921.34 80.4042 1902.59C75.0189 1885.96 63.7485 1875.68 51.6103 1864.44C43.8766 1857.25 4.1612 1826.15 8.75427 1819.28C13.6774 1811.93 37.5294 1812.53 49.941 1811.51C84.1375 1808.66 118.454 1807.75 152.743 1808.79C199.541 1810.3 246.698 1814.53 292.685 1824.1C325.308 1830.87 349.914 1847.02 380.33 1858.86C419.735 1874.24 460.553 1886.4 499.58 1903.22C519.028 1911.6 547.812 1922.38 557.772 1944.02C561.601 1952.31 565.317 1973.4 561.054 1981.69C555.933 1991.66 536.872 1995.89 527.874 1998.45C505.333 2004.83 481.746 2007.94 458.809 2010.71Z" stroke="#FFCA49" stroke-width="3.31375"/>
</g>
</svg>
